<svg width="159" height="101" viewBox="0 0 159 101" fill="none" xmlns="http://www.w3.org/2000/svg">
<path d="M134.72 7.1547L107.725 30.6967" stroke="black" stroke-width="3.18196"/>
<path d="M143.353 36.6875L107.367 39.1388" stroke="black" stroke-width="3.18196"/>
<path d="M108.16 47.3901L138.376 68.0764" stroke="black" stroke-width="3.18196"/>
<path d="M12.7548 46.937C13.7654 46.9319 14.5853 46.8165 15.2146 46.5909C16.4084 46.1584 17.0024 45.3627 16.9965 44.2038C16.9931 43.5271 16.6938 43.0048 16.0986 42.6369C15.5035 42.2783 14.5701 41.9632 13.2986 41.6914L11.1268 41.2156C8.99205 40.7443 7.51534 40.2279 6.69666 39.6664C5.31054 38.7278 4.61242 37.2525 4.6023 35.2407C4.59306 33.4051 5.2529 31.8767 6.5818 30.6555C7.9107 29.4343 9.86844 28.8172 12.455 28.8042C14.6151 28.7933 16.4583 29.3588 17.9845 30.5008C19.5199 31.6334 20.3302 33.2889 20.4153 35.4672L16.2991 35.4879C16.2187 34.2552 15.6766 33.3818 14.6727 32.8677C14.0035 32.528 13.1729 32.3607 12.1809 32.3657C11.0777 32.3712 10.198 32.5981 9.54204 33.0465C8.88605 33.4948 8.56006 34.1176 8.56407 34.9149C8.56775 35.6473 8.89498 36.1926 9.54576 36.5509C9.96417 36.7899 10.8556 37.0681 12.22 37.3858L15.7565 38.2163C17.3066 38.5793 18.4773 39.0695 19.2684 39.6866C20.497 40.6447 21.1159 42.0369 21.1251 43.8632C21.1345 45.7359 20.4239 47.2971 18.9931 48.5466C17.5716 49.7868 15.5536 50.4135 12.9393 50.4266C10.2692 50.4401 8.16633 49.8434 6.63052 48.6366C5.09467 47.4205 4.32138 45.7463 4.31065 43.614L8.39912 43.5935C8.53362 44.5292 8.79209 45.2279 9.17453 45.6895C9.87409 46.5296 11.0675 46.9455 12.7548 46.937ZM32.9942 42.4268L28.6415 42.4487L28.6786 49.819L24.4232 49.8404L24.3201 29.3425L33.248 29.2976C35.3061 29.2872 36.9498 29.8074 38.1788 30.8581C39.4079 31.9089 40.028 33.5421 40.0392 35.7578C40.0513 38.1775 39.4481 39.8911 38.2293 40.8985C37.0106 41.9059 35.2656 42.4153 32.9942 42.4268ZM34.9752 38.1474C35.529 37.6533 35.8032 36.8731 35.7979 35.807C35.7925 34.7408 35.5059 33.982 34.9381 33.5306C34.3796 33.0791 33.595 32.8559 32.5845 32.861L28.5934 32.8811L28.6237 38.9164L32.6149 38.8964C33.6254 38.8913 34.4122 38.6416 34.9752 38.1474ZM57.5448 40.7179L47.5879 40.768L47.6144 46.0385L58.962 45.9814L58.9805 49.6666L43.4471 49.7447L43.344 29.2468L58.3768 29.1712L58.395 32.8007L47.5481 32.8553L47.57 37.208L57.5269 37.1579L57.5448 40.7179ZM74.298 45.3758L66.7469 45.4138L65.3496 49.6346L60.8718 49.6571L68.0834 29.1223L72.9228 29.098L80.285 49.5594L75.6403 49.5828L74.298 45.3758ZM73.0843 41.8496L70.485 33.7968L67.8833 41.8758L73.0843 41.8496ZM101.061 49.4549L95.5542 49.4826L89.1818 40.5588L87.1481 42.6689L87.1826 49.5248L82.9689 49.5459L82.8658 29.048L87.0795 29.0268L87.1219 37.468L94.9922 28.987L100.527 28.9592L92.1699 37.4426L101.061 49.4549Z" fill="black"/>
<path d="M19.7544 89.9777C14.783 90.0027 10.9768 88.6688 8.33584 85.976C4.79508 82.6742 3.00899 77.9004 2.97758 71.6546C2.94553 65.283 4.6835 60.4915 8.1915 57.2801C10.8052 54.5609 14.5978 53.1888 19.5692 53.1638C24.5407 53.1388 28.3469 54.4727 30.9878 57.1654C34.5122 60.3415 36.2904 65.1153 36.3225 71.4869C36.3539 77.7327 34.6238 82.5242 31.1321 85.8614C28.5184 88.5806 24.7258 89.9527 19.7544 89.9777ZM26.5746 80.5981C28.2473 78.4657 29.0738 75.4409 29.0541 71.5235C29.0345 67.6218 28.1697 64.6134 26.46 62.498C24.7658 60.3669 22.4792 59.3086 19.6002 59.323C16.7212 59.3375 14.4296 60.411 12.7254 62.5435C11.0213 64.676 10.1791 67.701 10.1988 71.6183C10.2185 75.5357 11.0911 78.552 12.8166 80.6673C14.5421 82.7825 16.8444 83.8329 19.7234 83.8184C22.6025 83.8039 24.8862 82.7305 26.5746 80.5981ZM62.49 75.3908L62.3825 54.0104L69.7689 53.9733L69.8764 75.3536C69.895 79.0507 69.3353 81.9327 68.1972 83.9994C66.0765 87.7859 62.0035 89.6944 55.978 89.7247C49.9524 89.755 45.8525 87.8877 43.6782 84.1227C42.5193 82.0675 41.9306 79.1914 41.912 75.4943L41.8045 54.1139L49.1909 54.0768L49.2984 75.4571C49.3104 77.8485 49.6024 79.5933 50.1743 80.6918C51.0651 82.6381 52.9894 83.6039 55.9471 83.589C58.8891 83.5742 60.7956 82.5892 61.6668 80.6339C62.2277 79.5298 62.5021 77.7821 62.49 75.3908ZM102.005 53.8111L102.036 59.9704L91.6286 60.0227L91.7726 88.6479L84.457 88.6847L84.313 60.0595L73.8588 60.1121L73.8279 53.9528L102.005 53.8111Z" fill="black"/>
</svg>
